<mxfile host="app.diagrams.net" modified="2022-09-22T07:11:55.832Z" agent="5.0 (Windows NT 10.0; Win64; x64) AppleWebKit/537.36 (KHTML, like Gecko) Chrome/105.0.0.0 Safari/537.36" etag="DVZKhrCPmD-d_JTqoIqU" version="20.2.8" type="github">
  <diagram id="C5RBs43oDa-KdzZeNtuy" name="Page-1">
    <mxGraphModel dx="782" dy="436" grid="1" gridSize="10" guides="1" tooltips="1" connect="1" arrows="1" fold="1" page="1" pageScale="1" pageWidth="827" pageHeight="1169" math="0" shadow="0">
      <root>
        <mxCell id="WIyWlLk6GJQsqaUBKTNV-0" />
        <mxCell id="WIyWlLk6GJQsqaUBKTNV-1" parent="WIyWlLk6GJQsqaUBKTNV-0" />
        <mxCell id="W0C26P7IAarvc-Xjl2Vj-59" style="edgeStyle=orthogonalEdgeStyle;rounded=0;orthogonalLoop=1;jettySize=auto;html=1;exitX=0.5;exitY=1;exitDx=0;exitDy=0;entryX=0.5;entryY=0;entryDx=0;entryDy=0;fontSize=16;endArrow=block;endFill=0;" edge="1" parent="WIyWlLk6GJQsqaUBKTNV-1" source="W0C26P7IAarvc-Xjl2Vj-56" target="W0C26P7IAarvc-Xjl2Vj-11">
          <mxGeometry relative="1" as="geometry" />
        </mxCell>
        <mxCell id="W0C26P7IAarvc-Xjl2Vj-56" value="" style="rounded=1;whiteSpace=wrap;html=1;fontSize=16;fillColor=#dae8fc;strokeColor=#6c8ebf;sketch=1;" vertex="1" parent="WIyWlLk6GJQsqaUBKTNV-1">
          <mxGeometry x="87.5" y="337" width="515" height="360" as="geometry" />
        </mxCell>
        <mxCell id="W0C26P7IAarvc-Xjl2Vj-58" style="edgeStyle=orthogonalEdgeStyle;rounded=0;orthogonalLoop=1;jettySize=auto;html=1;entryX=0.5;entryY=0;entryDx=0;entryDy=0;fontSize=16;endArrow=block;endFill=0;" edge="1" parent="WIyWlLk6GJQsqaUBKTNV-1" source="W0C26P7IAarvc-Xjl2Vj-53" target="W0C26P7IAarvc-Xjl2Vj-56">
          <mxGeometry relative="1" as="geometry" />
        </mxCell>
        <mxCell id="W0C26P7IAarvc-Xjl2Vj-53" value="" style="rounded=1;whiteSpace=wrap;html=1;fontSize=16;fillColor=#d0cee2;strokeColor=#56517e;fillStyle=auto;shadow=0;sketch=1;" vertex="1" parent="WIyWlLk6GJQsqaUBKTNV-1">
          <mxGeometry x="105" y="140" width="480" height="160" as="geometry" />
        </mxCell>
        <mxCell id="W0C26P7IAarvc-Xjl2Vj-29" value="" style="rounded=1;whiteSpace=wrap;html=1;fontSize=16;fillColor=#dae8fc;strokeColor=#6c8ebf;sketch=1;" vertex="1" parent="WIyWlLk6GJQsqaUBKTNV-1">
          <mxGeometry x="110" y="352" width="130" height="323" as="geometry" />
        </mxCell>
        <mxCell id="W0C26P7IAarvc-Xjl2Vj-21" style="edgeStyle=orthogonalEdgeStyle;rounded=0;orthogonalLoop=1;jettySize=auto;html=1;entryX=0.5;entryY=0;entryDx=0;entryDy=0;fontSize=16;endArrow=block;endFill=0;" edge="1" parent="WIyWlLk6GJQsqaUBKTNV-1" source="W0C26P7IAarvc-Xjl2Vj-1" target="W0C26P7IAarvc-Xjl2Vj-5">
          <mxGeometry relative="1" as="geometry" />
        </mxCell>
        <mxCell id="W0C26P7IAarvc-Xjl2Vj-1" value="UI设计" style="rounded=1;whiteSpace=wrap;html=1;fontSize=16;fillColor=#fff2cc;strokeColor=#d6b656;" vertex="1" parent="WIyWlLk6GJQsqaUBKTNV-1">
          <mxGeometry x="130" y="160" width="90" height="40" as="geometry" />
        </mxCell>
        <mxCell id="W0C26P7IAarvc-Xjl2Vj-55" style="edgeStyle=orthogonalEdgeStyle;rounded=0;orthogonalLoop=1;jettySize=auto;html=1;entryX=0.5;entryY=0;entryDx=0;entryDy=0;fontSize=16;endArrow=block;endFill=0;" edge="1" parent="WIyWlLk6GJQsqaUBKTNV-1" source="W0C26P7IAarvc-Xjl2Vj-2" target="W0C26P7IAarvc-Xjl2Vj-53">
          <mxGeometry relative="1" as="geometry" />
        </mxCell>
        <mxCell id="W0C26P7IAarvc-Xjl2Vj-2" value="需求下发" style="ellipse;whiteSpace=wrap;html=1;aspect=fixed;fontSize=16;fillColor=#f8cecc;strokeColor=#b85450;" vertex="1" parent="WIyWlLk6GJQsqaUBKTNV-1">
          <mxGeometry x="305" y="20" width="80" height="80" as="geometry" />
        </mxCell>
        <mxCell id="W0C26P7IAarvc-Xjl2Vj-20" style="edgeStyle=orthogonalEdgeStyle;rounded=0;orthogonalLoop=1;jettySize=auto;html=1;entryX=0.5;entryY=0;entryDx=0;entryDy=0;fontSize=16;endArrow=block;endFill=0;" edge="1" parent="WIyWlLk6GJQsqaUBKTNV-1" source="W0C26P7IAarvc-Xjl2Vj-3" target="W0C26P7IAarvc-Xjl2Vj-6">
          <mxGeometry relative="1" as="geometry" />
        </mxCell>
        <mxCell id="W0C26P7IAarvc-Xjl2Vj-3" value="概要设计" style="rounded=1;whiteSpace=wrap;html=1;fontSize=16;fillColor=#fff2cc;strokeColor=#d6b656;" vertex="1" parent="WIyWlLk6GJQsqaUBKTNV-1">
          <mxGeometry x="300" y="160" width="90" height="40" as="geometry" />
        </mxCell>
        <mxCell id="W0C26P7IAarvc-Xjl2Vj-22" style="edgeStyle=orthogonalEdgeStyle;rounded=0;orthogonalLoop=1;jettySize=auto;html=1;entryX=0.5;entryY=0;entryDx=0;entryDy=0;fontSize=16;endArrow=block;endFill=0;" edge="1" parent="WIyWlLk6GJQsqaUBKTNV-1" source="W0C26P7IAarvc-Xjl2Vj-4" target="W0C26P7IAarvc-Xjl2Vj-7">
          <mxGeometry relative="1" as="geometry" />
        </mxCell>
        <mxCell id="W0C26P7IAarvc-Xjl2Vj-4" value="测试用例" style="rounded=1;whiteSpace=wrap;html=1;fontSize=16;fillColor=#fff2cc;strokeColor=#d6b656;" vertex="1" parent="WIyWlLk6GJQsqaUBKTNV-1">
          <mxGeometry x="450" y="160" width="90" height="40" as="geometry" />
        </mxCell>
        <mxCell id="W0C26P7IAarvc-Xjl2Vj-5" value="前端开发" style="rounded=1;whiteSpace=wrap;html=1;fontSize=16;fillColor=#fff2cc;strokeColor=#d6b656;" vertex="1" parent="WIyWlLk6GJQsqaUBKTNV-1">
          <mxGeometry x="130" y="240" width="90" height="40" as="geometry" />
        </mxCell>
        <mxCell id="W0C26P7IAarvc-Xjl2Vj-6" value="后端开发" style="rounded=1;whiteSpace=wrap;html=1;fontSize=16;fillColor=#fff2cc;strokeColor=#d6b656;" vertex="1" parent="WIyWlLk6GJQsqaUBKTNV-1">
          <mxGeometry x="300" y="240" width="90" height="40" as="geometry" />
        </mxCell>
        <mxCell id="W0C26P7IAarvc-Xjl2Vj-7" value="用例评审" style="rounded=1;whiteSpace=wrap;html=1;fontSize=16;fillColor=#fff2cc;strokeColor=#d6b656;" vertex="1" parent="WIyWlLk6GJQsqaUBKTNV-1">
          <mxGeometry x="450" y="240" width="90" height="40" as="geometry" />
        </mxCell>
        <mxCell id="W0C26P7IAarvc-Xjl2Vj-65" style="edgeStyle=orthogonalEdgeStyle;curved=1;rounded=0;orthogonalLoop=1;jettySize=auto;html=1;fontSize=16;endArrow=block;endFill=0;" edge="1" parent="WIyWlLk6GJQsqaUBKTNV-1" source="W0C26P7IAarvc-Xjl2Vj-8" target="W0C26P7IAarvc-Xjl2Vj-9">
          <mxGeometry relative="1" as="geometry" />
        </mxCell>
        <mxCell id="W0C26P7IAarvc-Xjl2Vj-8" value="功能测试" style="rounded=1;whiteSpace=wrap;html=1;fontSize=16;fillColor=#dae8fc;strokeColor=#6c8ebf;" vertex="1" parent="WIyWlLk6GJQsqaUBKTNV-1">
          <mxGeometry x="130" y="462" width="90" height="40" as="geometry" />
        </mxCell>
        <mxCell id="W0C26P7IAarvc-Xjl2Vj-66" style="edgeStyle=orthogonalEdgeStyle;curved=1;rounded=0;orthogonalLoop=1;jettySize=auto;html=1;entryX=0.5;entryY=0;entryDx=0;entryDy=0;fontSize=16;endArrow=block;endFill=0;" edge="1" parent="WIyWlLk6GJQsqaUBKTNV-1" source="W0C26P7IAarvc-Xjl2Vj-9" target="W0C26P7IAarvc-Xjl2Vj-10">
          <mxGeometry relative="1" as="geometry" />
        </mxCell>
        <mxCell id="W0C26P7IAarvc-Xjl2Vj-9" value="性能测试" style="rounded=1;whiteSpace=wrap;html=1;fontSize=16;fillColor=#d5e8d4;strokeColor=#82b366;" vertex="1" parent="WIyWlLk6GJQsqaUBKTNV-1">
          <mxGeometry x="130" y="542" width="90" height="40" as="geometry" />
        </mxCell>
        <mxCell id="W0C26P7IAarvc-Xjl2Vj-10" value="稳定性测试" style="rounded=1;whiteSpace=wrap;html=1;fontSize=16;fillColor=#dae8fc;strokeColor=#6c8ebf;" vertex="1" parent="WIyWlLk6GJQsqaUBKTNV-1">
          <mxGeometry x="130" y="617" width="90" height="40" as="geometry" />
        </mxCell>
        <mxCell id="W0C26P7IAarvc-Xjl2Vj-11" value="版本发布" style="ellipse;whiteSpace=wrap;html=1;aspect=fixed;fontSize=16;fillColor=#f8cecc;strokeColor=#b85450;" vertex="1" parent="WIyWlLk6GJQsqaUBKTNV-1">
          <mxGeometry x="305" y="730" width="80" height="80" as="geometry" />
        </mxCell>
        <mxCell id="W0C26P7IAarvc-Xjl2Vj-64" style="edgeStyle=orthogonalEdgeStyle;curved=1;rounded=0;orthogonalLoop=1;jettySize=auto;html=1;fontSize=16;endArrow=block;endFill=0;" edge="1" parent="WIyWlLk6GJQsqaUBKTNV-1" source="W0C26P7IAarvc-Xjl2Vj-12">
          <mxGeometry relative="1" as="geometry">
            <mxPoint x="175" y="460" as="targetPoint" />
          </mxGeometry>
        </mxCell>
        <mxCell id="W0C26P7IAarvc-Xjl2Vj-12" value="自测联调" style="rounded=1;whiteSpace=wrap;html=1;fontSize=16;fillColor=#dae8fc;strokeColor=#6c8ebf;" vertex="1" parent="WIyWlLk6GJQsqaUBKTNV-1">
          <mxGeometry x="130" y="382" width="90" height="40" as="geometry" />
        </mxCell>
        <mxCell id="W0C26P7IAarvc-Xjl2Vj-30" value="X86" style="text;html=1;strokeColor=none;fillColor=none;align=center;verticalAlign=middle;whiteSpace=wrap;rounded=0;fontSize=16;" vertex="1" parent="WIyWlLk6GJQsqaUBKTNV-1">
          <mxGeometry x="145" y="352" width="60" height="30" as="geometry" />
        </mxCell>
        <mxCell id="W0C26P7IAarvc-Xjl2Vj-62" style="edgeStyle=orthogonalEdgeStyle;rounded=0;orthogonalLoop=1;jettySize=auto;html=1;entryX=0.5;entryY=1;entryDx=0;entryDy=0;fontSize=16;endArrow=block;endFill=1;curved=1;" edge="1" parent="WIyWlLk6GJQsqaUBKTNV-1" source="W0C26P7IAarvc-Xjl2Vj-8" target="W0C26P7IAarvc-Xjl2Vj-8">
          <mxGeometry relative="1" as="geometry">
            <Array as="points">
              <mxPoint x="175" y="442" />
              <mxPoint x="230" y="442" />
              <mxPoint x="230" y="522" />
              <mxPoint x="175" y="522" />
            </Array>
          </mxGeometry>
        </mxCell>
        <mxCell id="W0C26P7IAarvc-Xjl2Vj-69" style="edgeStyle=orthogonalEdgeStyle;curved=1;rounded=0;orthogonalLoop=1;jettySize=auto;html=1;entryX=0.5;entryY=1;entryDx=0;entryDy=0;fontSize=16;endArrow=block;endFill=0;" edge="1" parent="WIyWlLk6GJQsqaUBKTNV-1" source="W0C26P7IAarvc-Xjl2Vj-10" target="W0C26P7IAarvc-Xjl2Vj-10">
          <mxGeometry relative="1" as="geometry">
            <Array as="points">
              <mxPoint x="175" y="597" />
              <mxPoint x="230" y="597" />
              <mxPoint x="230" y="670" />
              <mxPoint x="175" y="670" />
            </Array>
          </mxGeometry>
        </mxCell>
        <mxCell id="W0C26P7IAarvc-Xjl2Vj-70" value="" style="rounded=1;whiteSpace=wrap;html=1;fontSize=16;fillColor=#dae8fc;strokeColor=#6c8ebf;sketch=1;" vertex="1" parent="WIyWlLk6GJQsqaUBKTNV-1">
          <mxGeometry x="250" y="352" width="130" height="323" as="geometry" />
        </mxCell>
        <mxCell id="W0C26P7IAarvc-Xjl2Vj-71" style="edgeStyle=orthogonalEdgeStyle;curved=1;rounded=0;orthogonalLoop=1;jettySize=auto;html=1;fontSize=16;endArrow=block;endFill=0;" edge="1" parent="WIyWlLk6GJQsqaUBKTNV-1" source="W0C26P7IAarvc-Xjl2Vj-72" target="W0C26P7IAarvc-Xjl2Vj-74">
          <mxGeometry relative="1" as="geometry" />
        </mxCell>
        <mxCell id="W0C26P7IAarvc-Xjl2Vj-72" value="功能测试" style="rounded=1;whiteSpace=wrap;html=1;fontSize=16;fillColor=#dae8fc;strokeColor=#6c8ebf;" vertex="1" parent="WIyWlLk6GJQsqaUBKTNV-1">
          <mxGeometry x="270" y="462" width="90" height="40" as="geometry" />
        </mxCell>
        <mxCell id="W0C26P7IAarvc-Xjl2Vj-73" style="edgeStyle=orthogonalEdgeStyle;curved=1;rounded=0;orthogonalLoop=1;jettySize=auto;html=1;entryX=0.5;entryY=0;entryDx=0;entryDy=0;fontSize=16;endArrow=block;endFill=0;" edge="1" parent="WIyWlLk6GJQsqaUBKTNV-1" source="W0C26P7IAarvc-Xjl2Vj-74" target="W0C26P7IAarvc-Xjl2Vj-75">
          <mxGeometry relative="1" as="geometry" />
        </mxCell>
        <mxCell id="W0C26P7IAarvc-Xjl2Vj-74" value="性能测试" style="rounded=1;whiteSpace=wrap;html=1;fontSize=16;fillColor=#d5e8d4;strokeColor=#82b366;" vertex="1" parent="WIyWlLk6GJQsqaUBKTNV-1">
          <mxGeometry x="270" y="542" width="90" height="40" as="geometry" />
        </mxCell>
        <mxCell id="W0C26P7IAarvc-Xjl2Vj-75" value="稳定性测试" style="rounded=1;whiteSpace=wrap;html=1;fontSize=16;fillColor=#dae8fc;strokeColor=#6c8ebf;" vertex="1" parent="WIyWlLk6GJQsqaUBKTNV-1">
          <mxGeometry x="270" y="617" width="90" height="40" as="geometry" />
        </mxCell>
        <mxCell id="W0C26P7IAarvc-Xjl2Vj-76" style="edgeStyle=orthogonalEdgeStyle;curved=1;rounded=0;orthogonalLoop=1;jettySize=auto;html=1;fontSize=16;endArrow=block;endFill=0;" edge="1" parent="WIyWlLk6GJQsqaUBKTNV-1" source="W0C26P7IAarvc-Xjl2Vj-77">
          <mxGeometry relative="1" as="geometry">
            <mxPoint x="315" y="460" as="targetPoint" />
          </mxGeometry>
        </mxCell>
        <mxCell id="W0C26P7IAarvc-Xjl2Vj-77" value="自测联调" style="rounded=1;whiteSpace=wrap;html=1;fontSize=16;fillColor=#dae8fc;strokeColor=#6c8ebf;" vertex="1" parent="WIyWlLk6GJQsqaUBKTNV-1">
          <mxGeometry x="270" y="382" width="90" height="40" as="geometry" />
        </mxCell>
        <mxCell id="W0C26P7IAarvc-Xjl2Vj-78" value="Kylin" style="text;html=1;strokeColor=none;fillColor=none;align=center;verticalAlign=middle;whiteSpace=wrap;rounded=0;fontSize=16;" vertex="1" parent="WIyWlLk6GJQsqaUBKTNV-1">
          <mxGeometry x="285" y="352" width="60" height="30" as="geometry" />
        </mxCell>
        <mxCell id="W0C26P7IAarvc-Xjl2Vj-79" style="edgeStyle=orthogonalEdgeStyle;rounded=0;orthogonalLoop=1;jettySize=auto;html=1;entryX=0.5;entryY=1;entryDx=0;entryDy=0;fontSize=16;endArrow=block;endFill=1;curved=1;" edge="1" parent="WIyWlLk6GJQsqaUBKTNV-1" source="W0C26P7IAarvc-Xjl2Vj-72" target="W0C26P7IAarvc-Xjl2Vj-72">
          <mxGeometry relative="1" as="geometry">
            <Array as="points">
              <mxPoint x="315" y="442" />
              <mxPoint x="370" y="442" />
              <mxPoint x="370" y="522" />
              <mxPoint x="315" y="522" />
            </Array>
          </mxGeometry>
        </mxCell>
        <mxCell id="W0C26P7IAarvc-Xjl2Vj-80" style="edgeStyle=orthogonalEdgeStyle;curved=1;rounded=0;orthogonalLoop=1;jettySize=auto;html=1;entryX=0.5;entryY=1;entryDx=0;entryDy=0;fontSize=16;endArrow=block;endFill=0;" edge="1" parent="WIyWlLk6GJQsqaUBKTNV-1" source="W0C26P7IAarvc-Xjl2Vj-75" target="W0C26P7IAarvc-Xjl2Vj-75">
          <mxGeometry relative="1" as="geometry">
            <Array as="points">
              <mxPoint x="315" y="597" />
              <mxPoint x="370" y="597" />
              <mxPoint x="370" y="670" />
              <mxPoint x="315" y="670" />
            </Array>
          </mxGeometry>
        </mxCell>
        <mxCell id="W0C26P7IAarvc-Xjl2Vj-81" value="" style="rounded=1;whiteSpace=wrap;html=1;fontSize=16;fillColor=#dae8fc;strokeColor=#6c8ebf;sketch=1;" vertex="1" parent="WIyWlLk6GJQsqaUBKTNV-1">
          <mxGeometry x="390" y="352" width="130" height="323" as="geometry" />
        </mxCell>
        <mxCell id="W0C26P7IAarvc-Xjl2Vj-82" style="edgeStyle=orthogonalEdgeStyle;curved=1;rounded=0;orthogonalLoop=1;jettySize=auto;html=1;fontSize=16;endArrow=block;endFill=0;" edge="1" parent="WIyWlLk6GJQsqaUBKTNV-1" source="W0C26P7IAarvc-Xjl2Vj-83" target="W0C26P7IAarvc-Xjl2Vj-85">
          <mxGeometry relative="1" as="geometry" />
        </mxCell>
        <mxCell id="W0C26P7IAarvc-Xjl2Vj-83" value="功能测试" style="rounded=1;whiteSpace=wrap;html=1;fontSize=16;fillColor=#dae8fc;strokeColor=#6c8ebf;" vertex="1" parent="WIyWlLk6GJQsqaUBKTNV-1">
          <mxGeometry x="410" y="462" width="90" height="40" as="geometry" />
        </mxCell>
        <mxCell id="W0C26P7IAarvc-Xjl2Vj-84" style="edgeStyle=orthogonalEdgeStyle;curved=1;rounded=0;orthogonalLoop=1;jettySize=auto;html=1;entryX=0.5;entryY=0;entryDx=0;entryDy=0;fontSize=16;endArrow=block;endFill=0;" edge="1" parent="WIyWlLk6GJQsqaUBKTNV-1" source="W0C26P7IAarvc-Xjl2Vj-85" target="W0C26P7IAarvc-Xjl2Vj-86">
          <mxGeometry relative="1" as="geometry" />
        </mxCell>
        <mxCell id="W0C26P7IAarvc-Xjl2Vj-85" value="性能测试" style="rounded=1;whiteSpace=wrap;html=1;fontSize=16;fillColor=#d5e8d4;strokeColor=#82b366;" vertex="1" parent="WIyWlLk6GJQsqaUBKTNV-1">
          <mxGeometry x="410" y="542" width="90" height="40" as="geometry" />
        </mxCell>
        <mxCell id="W0C26P7IAarvc-Xjl2Vj-86" value="稳定性测试" style="rounded=1;whiteSpace=wrap;html=1;fontSize=16;fillColor=#dae8fc;strokeColor=#6c8ebf;" vertex="1" parent="WIyWlLk6GJQsqaUBKTNV-1">
          <mxGeometry x="410" y="617" width="90" height="40" as="geometry" />
        </mxCell>
        <mxCell id="W0C26P7IAarvc-Xjl2Vj-87" style="edgeStyle=orthogonalEdgeStyle;curved=1;rounded=0;orthogonalLoop=1;jettySize=auto;html=1;fontSize=16;endArrow=block;endFill=0;" edge="1" parent="WIyWlLk6GJQsqaUBKTNV-1" source="W0C26P7IAarvc-Xjl2Vj-88">
          <mxGeometry relative="1" as="geometry">
            <mxPoint x="455" y="460" as="targetPoint" />
          </mxGeometry>
        </mxCell>
        <mxCell id="W0C26P7IAarvc-Xjl2Vj-88" value="自测联调" style="rounded=1;whiteSpace=wrap;html=1;fontSize=16;fillColor=#dae8fc;strokeColor=#6c8ebf;" vertex="1" parent="WIyWlLk6GJQsqaUBKTNV-1">
          <mxGeometry x="410" y="382" width="90" height="40" as="geometry" />
        </mxCell>
        <mxCell id="W0C26P7IAarvc-Xjl2Vj-89" value="HG" style="text;html=1;strokeColor=none;fillColor=none;align=center;verticalAlign=middle;whiteSpace=wrap;rounded=0;fontSize=16;" vertex="1" parent="WIyWlLk6GJQsqaUBKTNV-1">
          <mxGeometry x="425" y="352" width="60" height="30" as="geometry" />
        </mxCell>
        <mxCell id="W0C26P7IAarvc-Xjl2Vj-90" style="edgeStyle=orthogonalEdgeStyle;rounded=0;orthogonalLoop=1;jettySize=auto;html=1;entryX=0.5;entryY=1;entryDx=0;entryDy=0;fontSize=16;endArrow=block;endFill=1;curved=1;" edge="1" parent="WIyWlLk6GJQsqaUBKTNV-1" source="W0C26P7IAarvc-Xjl2Vj-83" target="W0C26P7IAarvc-Xjl2Vj-83">
          <mxGeometry relative="1" as="geometry">
            <Array as="points">
              <mxPoint x="455" y="442" />
              <mxPoint x="510" y="442" />
              <mxPoint x="510" y="522" />
              <mxPoint x="455" y="522" />
            </Array>
          </mxGeometry>
        </mxCell>
        <mxCell id="W0C26P7IAarvc-Xjl2Vj-91" style="edgeStyle=orthogonalEdgeStyle;curved=1;rounded=0;orthogonalLoop=1;jettySize=auto;html=1;entryX=0.5;entryY=1;entryDx=0;entryDy=0;fontSize=16;endArrow=block;endFill=0;" edge="1" parent="WIyWlLk6GJQsqaUBKTNV-1" source="W0C26P7IAarvc-Xjl2Vj-86" target="W0C26P7IAarvc-Xjl2Vj-86">
          <mxGeometry relative="1" as="geometry">
            <Array as="points">
              <mxPoint x="455" y="597" />
              <mxPoint x="510" y="597" />
              <mxPoint x="510" y="670" />
              <mxPoint x="455" y="670" />
            </Array>
          </mxGeometry>
        </mxCell>
        <mxCell id="W0C26P7IAarvc-Xjl2Vj-103" value="&lt;font style=&quot;font-size: 20px;&quot;&gt;..........&lt;/font&gt;" style="text;html=1;strokeColor=none;fillColor=none;align=center;verticalAlign=middle;whiteSpace=wrap;rounded=0;fontSize=16;strokeWidth=7;" vertex="1" parent="WIyWlLk6GJQsqaUBKTNV-1">
          <mxGeometry x="530" y="490" width="60" height="30" as="geometry" />
        </mxCell>
      </root>
    </mxGraphModel>
  </diagram>
</mxfile>
